<svg width="512" height="160" viewBox="0 0 512 160" fill="none" xmlns="http://www.w3.org/2000/svg">
  <rect width="512" height="160" rx="18" fill="url(#bg)"/>
  <g opacity="0.22" stroke="#42E0FF" stroke-width="2">
    <path d="M14 130L62 84L112 124L178 62L226 90" />
    <path d="M26 24L86 44L120 20L170 42L220 16" />
  </g>
  <g transform="translate(18 24)">
    <polygon points="0,24 52,0 104,24 84,94 20,94" fill="#0C3048" stroke="#6CE5FF" stroke-width="3"/>
    <path d="M17 43L38 24L54 42L84 12L94 24L54 68L37 50L26 60L17 43Z" fill="#DFF8FF"/>
    <rect x="44" y="35" width="20" height="20" rx="3" fill="#2BC67A"/>
    <rect x="51" y="39" width="6" height="12" fill="#E8FFF5"/>
    <rect x="47" y="43" width="14" height="4" fill="#E8FFF5"/>
  </g>
  <text x="142" y="102" fill="#EAF8FF" font-family="Rajdhani, Arial, sans-serif" font-weight="700" font-size="66">Vecta</text>
  <defs>
    <linearGradient id="bg" x1="0" y1="0" x2="512" y2="160" gradientUnits="userSpaceOnUse">
      <stop stop-color="#0D3A56"/>
      <stop offset="1" stop-color="#0A2233"/>
    </linearGradient>
  </defs>
</svg>
